<?xml version="1.0" encoding="UTF-8" standalone="no"?>
<!-- Generator: Adobe Illustrator 15.0.2, SVG Export Plug-In . SVG Version: 6.00 Build 0)  -->

<svg
   xmlns:dc="http://purl.org/dc/elements/1.1/"
   xmlns:cc="http://creativecommons.org/ns#"
   xmlns:rdf="http://www.w3.org/1999/02/22-rdf-syntax-ns#"
   xmlns:svg="http://www.w3.org/2000/svg"
   xmlns="http://www.w3.org/2000/svg"
   xmlns:sodipodi="http://sodipodi.sourceforge.net/DTD/sodipodi-0.dtd"
   xmlns:inkscape="http://www.inkscape.org/namespaces/inkscape"
   version="1.1"
   id="Layer_1"
   x="0px"
   y="0px"
   width="14"
   height="14"
   viewBox="0 0 551.38462 551.38462"
   xml:space="preserve"
   inkscape:version="0.91 r13725"
   sodipodi:docname="answer.svg"><metadata
     id="metadata8"><rdf:RDF><cc:Work
         rdf:about=""><dc:format>image/svg+xml</dc:format><dc:type
           rdf:resource="http://purl.org/dc/dcmitype/StillImage" /><dc:title></dc:title></cc:Work></rdf:RDF></metadata><defs
     id="defs6" /><sodipodi:namedview
     pagecolor="#ffffff"
     bordercolor="#666666"
     borderopacity="1"
     objecttolerance="10"
     gridtolerance="10"
     guidetolerance="10"
     inkscape:pageopacity="0"
     inkscape:pageshadow="2"
     inkscape:window-width="1366"
     inkscape:window-height="706"
     id="namedview4"
     showgrid="false"
     inkscape:zoom="25.673416"
     inkscape:cx="-1.7042198"
     inkscape:cy="6.6531653"
     inkscape:window-x="-8"
     inkscape:window-y="-8"
     inkscape:window-maximized="1"
     inkscape:current-layer="Layer_1" /><path
     d="m 523.81546,110.27686 -55.13847,0 0,248.12312 -358.40005,0 0,55.13847 c 0,15.15769 12.40508,27.56923 27.56923,27.56923 l 303.26159,0 110.27694,110.27694 0,-413.53852 c 0,-15.16416 -12.41154,-27.56924 -27.56924,-27.56924 z m -110.27694,165.41541 0,-248.123112 c 0,-15.164156 -12.41154,-27.569234283296 -27.56923,-27.569234283296 l -358.400055,0 C 12.405079,-7.6283296e-5 0,12.405002 0,27.569158 l 0,385.969292 110.27694,-110.27694 275.69235,0 c 15.15769,0 27.56923,-12.41154 27.56923,-27.56924 z"
     id="path3"
     style="fill:#cccccc;fill-opacity:1"
     inkscape:connector-curvature="0" /></svg>