<?xml version="1.0" encoding="UTF-8" standalone="no"?>
<!-- Created with Inkscape (http://www.inkscape.org/) -->

<svg
   xmlns:dc="http://purl.org/dc/elements/1.1/"
   xmlns:cc="http://creativecommons.org/ns#"
   xmlns:rdf="http://www.w3.org/1999/02/22-rdf-syntax-ns#"
   xmlns:svg="http://www.w3.org/2000/svg"
   xmlns="http://www.w3.org/2000/svg"
   xmlns:sodipodi="http://sodipodi.sourceforge.net/DTD/sodipodi-0.dtd"
   xmlns:inkscape="http://www.inkscape.org/namespaces/inkscape"
   width="14"
   height="14"
   viewBox="0 0 14 14"
   id="svg4720"
   version="1.1"
   inkscape:version="0.91 r13725"
   sodipodi:docname="comment.svg">
  <defs
     id="defs4722" />
  <sodipodi:namedview
     id="base"
     pagecolor="#ffffff"
     bordercolor="#666666"
     borderopacity="1.0"
     inkscape:pageopacity="0.0"
     inkscape:pageshadow="2"
     inkscape:zoom="31.678384"
     inkscape:cx="6.77767"
     inkscape:cy="5.3415243"
     inkscape:document-units="px"
     inkscape:current-layer="layer1"
     showgrid="false"
     units="px"
     inkscape:window-width="1366"
     inkscape:window-height="706"
     inkscape:window-x="-8"
     inkscape:window-y="-8"
     inkscape:window-maximized="1" />
  <metadata
     id="metadata4725">
    <rdf:RDF>
      <cc:Work
         rdf:about="">
        <dc:format>image/svg+xml</dc:format>
        <dc:type
           rdf:resource="http://purl.org/dc/dcmitype/StillImage" />
        <dc:title></dc:title>
      </cc:Work>
    </rdf:RDF>
  </metadata>
  <g
     inkscape:label="Layer 1"
     inkscape:groupmode="layer"
     id="layer1"
     transform="translate(0,-1038.3622)">
    <path
       style="fill:#cccccc;fill-opacity:1"
       d="m 0.00793332,1045.3859 0,-7 6.99999998,0 6.9999997,0 0,5.5 0,5.5 -4.9081997,0 -4.90821,0 -1.49609,1.5 c -1.49364,1.4975 -1.49707,1.5 -2.09179998,1.5 l -0.5957,0 0,-7 z m 8.40820998,3 4.5917897,0 0,-4.5 0,-4.5 -5.9999997,0 -6,0 0,5.9042 0,5.9042 1.40821,-1.4042 1.4082,-1.4042 4.5918,0 z m -5.40821,-2.5 0,-0.5 3,0 3,0 0,0.5 0,0.5 -3,0 -3,0 0,-0.5 z m 0,-2 0,-0.5 4.5,0 4.4999997,0 0,0.5 0,0.5 -4.4999997,0 -4.5,0 0,-0.5 z m 0,-2 0,-0.5 4.5,0 4.4999997,0 0,0.5 0,0.5 -4.4999997,0 -4.5,0 0,-0.5 z"
       id="path4146"
       inkscape:connector-curvature="0" />
  </g>
</svg>
