<?xml version="1.0" encoding="UTF-8" standalone="no"?>
<!-- Generator: Adobe Illustrator 17.1.0, SVG Export Plug-In . SVG Version: 6.00 Build 0)  -->

<svg
   xmlns:dc="http://purl.org/dc/elements/1.1/"
   xmlns:cc="http://creativecommons.org/ns#"
   xmlns:rdf="http://www.w3.org/1999/02/22-rdf-syntax-ns#"
   xmlns:svg="http://www.w3.org/2000/svg"
   xmlns="http://www.w3.org/2000/svg"
   xmlns:sodipodi="http://sodipodi.sourceforge.net/DTD/sodipodi-0.dtd"
   xmlns:inkscape="http://www.inkscape.org/namespaces/inkscape"
   version="1.1"
   id="Layer_1"
   x="0px"
   y="0px"
   width="14"
   height="14"
   viewBox="0 0 14 14"
   enable-background="new 0 0 240 500"
   xml:space="preserve"
   inkscape:version="0.91 r13725"
   sodipodi:docname="delete.svg"
   inkscape:export-filename="D:\Site\Crossroads\Crossroads.Web\Content\img\delete.png"
   inkscape:export-xdpi="90"
   inkscape:export-ydpi="90"><metadata
     id="metadata3498"><rdf:RDF><cc:Work
         rdf:about=""><dc:format>image/svg+xml</dc:format><dc:type
           rdf:resource="http://purl.org/dc/dcmitype/StillImage" /><dc:title></dc:title></cc:Work></rdf:RDF></metadata><defs
     id="defs3496" /><sodipodi:namedview
     pagecolor="#ffffff"
     bordercolor="#666666"
     borderopacity="1"
     objecttolerance="10"
     gridtolerance="10"
     guidetolerance="10"
     inkscape:pageopacity="0"
     inkscape:pageshadow="2"
     inkscape:window-width="1366"
     inkscape:window-height="706"
     id="namedview3494"
     showgrid="false"
     inkscape:zoom="17.184"
     inkscape:cx="10.814634"
     inkscape:cy="8.7141575"
     inkscape:window-x="-8"
     inkscape:window-y="-8"
     inkscape:window-maximized="1"
     inkscape:current-layer="g3448" /><g
     transform="matrix(1.0769231,0,0,1.0769231,-43.810509,-344.15142)"
     id="g3448"><circle
       style="fill:#cccccc"
       cx="47.200001"
       cy="326.10001"
       r="6.5"
       id="circle3450" /><path
       style="fill:#777777;fill-opacity:0.88235295"
       inkscape:connector-curvature="0"
       d="m 50.4,328.1 0,0 -1.9,-1.9 1.9,-1.9 0,0 c 0,0 0,0 0,-0.1 0,-0.1 0,-0.2 0,-0.2 l -0.9,-0.9 c -0.1,-0.1 -0.1,-0.1 -0.2,0 l -0.1,0 0,0 -2,1.8 -1.9,-1.9 0,0 c 0,0 0,0 -0.1,0 -0.1,0 -0.2,0 -0.2,0 l -0.9,0.9 c -0.1,0.1 -0.1,0.1 0,0.2 l 0,0.1 0,0 1.9,1.9 -1.9,1.9 0,0 c 0,0 0,0 0,0.1 0,0.1 0,0.2 0,0.2 l 0.9,0.9 c 0.1,0.1 0.1,0.1 0.2,0 l 0.1,0 0,0 1.9,-1.9 1.9,1.9 0,0 c 0,0 0,0 0.1,0 0.1,0 0.2,0 0.2,0 l 0.9,-0.9 c 0.1,0 0.1,-0.1 0.1,-0.2 l 0,0 z"
       id="path3452" /></g></svg>